<svg width="1977" height="758" viewBox="0 0 1977 758" fill="none" xmlns="http://www.w3.org/2000/svg">
<g filter="url(#filter0_di_2103_11)">
<path d="M754 375C754 410.233 749.133 444.317 740.05 476.65V476.683L601.35 540.833L557.8 446.733C566.7 424.567 571.6 400.35 571.6 375C571.6 274.033 493.917 191.217 395.067 183.067L465.033 111.95L352.267 0.95C361.1 0.316667 370.017 0 379 0C586.117 0 754 167.883 754 375Z" fill="url(#paint0_linear_2103_11)" shape-rendering="crispEdges"/>
<path d="M710.717 550.1C647.817 669 522.883 750 379 750C281.4 750 192.5 712.733 125.783 651.633L119.583 501.25L229.717 496.717C265.017 539.983 318.8 567.617 379 567.617C439.2 567.617 488.317 542.333 523.6 502.233L574.85 613L710.717 550.117V550.1Z" fill="url(#paint1_linear_2103_11)" shape-rendering="crispEdges"/>
<path d="M388.217 112.55L305 197.15C235.35 226.133 186.4 294.85 186.4 375C186.4 399.15 190.833 422.3 198.983 443.6L63.0667 449.217L68.7 585.65C27.85 525.583 4 453.083 4 375C4 200.1 123.717 53.1667 285.717 11.7167L388.217 112.567V112.55Z" fill="url(#paint2_linear_2103_11)" shape-rendering="crispEdges"/>
<path d="M842.16 235.16H970.22V283.04H842.16V235.16ZM846.72 344.6H991.5V394H785.54V128H986.56V177.4H846.72V344.6Z" fill="url(#paint3_radial_2103_11)" shape-rendering="crispEdges"/>
<path d="M1040.48 394V128H1155.62C1179.43 128 1199.95 131.927 1217.18 139.78C1234.41 147.38 1247.71 158.4 1257.08 172.84C1266.45 187.28 1271.14 204.507 1271.14 224.52C1271.14 244.28 1266.45 261.38 1257.08 275.82C1247.71 290.26 1234.41 301.407 1217.18 309.26C1199.95 316.86 1179.43 320.66 1155.62 320.66H1074.68L1102.04 292.92V394H1040.48ZM1102.04 299.76L1074.68 270.5H1152.2C1171.2 270.5 1185.39 266.447 1194.76 258.34C1204.13 250.233 1208.82 238.96 1208.82 224.52C1208.82 209.827 1204.13 198.427 1194.76 190.32C1185.39 182.213 1171.2 178.16 1152.2 178.16H1074.68L1102.04 148.9V299.76Z" fill="url(#paint4_radial_2103_11)" shape-rendering="crispEdges"/>
<path d="M1315.09 394V128H1430.23C1454.04 128 1474.56 131.927 1491.79 139.78C1509.02 147.38 1522.32 158.4 1531.69 172.84C1541.06 187.28 1545.75 204.507 1545.75 224.52C1545.75 244.28 1541.06 261.38 1531.69 275.82C1522.32 290.007 1509.02 300.9 1491.79 308.5C1474.56 316.1 1454.04 319.9 1430.23 319.9H1349.29L1376.65 292.92V394H1315.09ZM1484.19 394L1417.69 297.48H1483.43L1550.69 394H1484.19ZM1376.65 299.76L1349.29 270.88H1426.81C1445.81 270.88 1460 266.827 1469.37 258.72C1478.74 250.36 1483.43 238.96 1483.43 224.52C1483.43 209.827 1478.74 198.427 1469.37 190.32C1460 182.213 1445.81 178.16 1426.81 178.16H1349.29L1376.65 148.9V299.76Z" fill="url(#paint5_radial_2103_11)" shape-rendering="crispEdges"/>
<path d="M1594.52 394V128H1656.08V394H1594.52Z" fill="url(#paint6_radial_2103_11)" shape-rendering="crispEdges"/>
<path d="M1719.21 394V128H1770.13L1927.07 319.52H1902.37V128H1963.17V394H1912.63L1755.31 202.48H1780.01V394H1719.21Z" fill="url(#paint7_radial_2103_11)" shape-rendering="crispEdges"/>
<path d="M784.715 497V423.5H816.53C823.11 423.5 828.78 424.585 833.54 426.755C838.3 428.855 841.975 431.9 844.565 435.89C847.155 439.88 848.45 444.64 848.45 450.17C848.45 455.63 847.155 460.355 844.565 464.345C841.975 468.265 838.3 471.275 833.54 473.375C828.78 475.475 823.11 476.525 816.53 476.525H794.165L801.725 469.07V497H784.715ZM831.44 497L813.065 470.33H831.23L849.815 497H831.44ZM801.725 470.96L794.165 462.98H815.585C820.835 462.98 824.755 461.86 827.345 459.62C829.935 457.31 831.23 454.16 831.23 450.17C831.23 446.11 829.935 442.96 827.345 440.72C824.755 438.48 820.835 437.36 815.585 437.36H794.165L801.725 429.275V470.96Z" fill="url(#paint8_radial_2103_11)" shape-rendering="crispEdges"/>
<path d="M877.572 453.11H912.957V466.34H877.572V453.11ZM878.832 483.35H918.837V497H861.927V423.5H917.472V437.15H878.832V483.35Z" fill="url(#paint9_radial_2103_11)" shape-rendering="crispEdges"/>
<path d="M967.546 498.26C961.876 498.26 956.591 497.35 951.691 495.53C946.861 493.64 942.661 490.98 939.091 487.55C935.521 484.12 932.721 480.095 930.691 475.475C928.731 470.855 927.751 465.78 927.751 460.25C927.751 454.72 928.731 449.645 930.691 445.025C932.721 440.405 935.521 436.38 939.091 432.95C942.731 429.52 946.966 426.895 951.796 425.075C956.626 423.185 961.911 422.24 967.651 422.24C974.021 422.24 979.761 423.36 984.871 425.6C990.051 427.77 994.391 430.99 997.891 435.26L986.971 445.34C984.451 442.47 981.651 440.335 978.571 438.935C975.491 437.465 972.131 436.73 968.491 436.73C965.061 436.73 961.911 437.29 959.041 438.41C956.171 439.53 953.686 441.14 951.586 443.24C949.486 445.34 947.841 447.825 946.651 450.695C945.531 453.565 944.971 456.75 944.971 460.25C944.971 463.75 945.531 466.935 946.651 469.805C947.841 472.675 949.486 475.16 951.586 477.26C953.686 479.36 956.171 480.97 959.041 482.09C961.911 483.21 965.061 483.77 968.491 483.77C972.131 483.77 975.491 483.07 978.571 481.67C981.651 480.2 984.451 477.995 986.971 475.055L997.891 485.135C994.391 489.405 990.051 492.66 984.871 494.9C979.761 497.14 973.986 498.26 967.546 498.26Z" fill="url(#paint10_radial_2103_11)" shape-rendering="crispEdges"/>
<path d="M1027.03 497V466.97L1030.92 477.26L998.578 423.5H1016.64L1041.42 464.765H1031.02L1055.91 423.5H1072.6L1040.26 477.26L1044.04 466.97V497H1027.03Z" fill="url(#paint11_radial_2103_11)" shape-rendering="crispEdges"/>
<path d="M1111.72 498.26C1106.05 498.26 1100.76 497.35 1095.86 495.53C1091.03 493.64 1086.83 490.98 1083.26 487.55C1079.69 484.12 1076.89 480.095 1074.86 475.475C1072.9 470.855 1071.92 465.78 1071.92 460.25C1071.92 454.72 1072.9 449.645 1074.86 445.025C1076.89 440.405 1079.69 436.38 1083.26 432.95C1086.9 429.52 1091.14 426.895 1095.97 425.075C1100.8 423.185 1106.08 422.24 1111.82 422.24C1118.19 422.24 1123.93 423.36 1129.04 425.6C1134.22 427.77 1138.56 430.99 1142.06 435.26L1131.14 445.34C1128.62 442.47 1125.82 440.335 1122.74 438.935C1119.66 437.465 1116.3 436.73 1112.66 436.73C1109.23 436.73 1106.08 437.29 1103.21 438.41C1100.34 439.53 1097.86 441.14 1095.76 443.24C1093.66 445.34 1092.01 447.825 1090.82 450.695C1089.7 453.565 1089.14 456.75 1089.14 460.25C1089.14 463.75 1089.7 466.935 1090.82 469.805C1092.01 472.675 1093.66 475.16 1095.76 477.26C1097.86 479.36 1100.34 480.97 1103.21 482.09C1106.08 483.21 1109.23 483.77 1112.66 483.77C1116.3 483.77 1119.66 483.07 1122.74 481.67C1125.82 480.2 1128.62 477.995 1131.14 475.055L1142.06 485.135C1138.56 489.405 1134.22 492.66 1129.04 494.9C1123.93 497.14 1118.16 498.26 1111.72 498.26Z" fill="url(#paint12_radial_2103_11)" shape-rendering="crispEdges"/>
<path d="M1153.55 497V423.5H1170.56V483.14H1207.41V497H1153.55Z" fill="url(#paint13_radial_2103_11)" shape-rendering="crispEdges"/>
<path d="M1232.56 453.11H1267.95V466.34H1232.56V453.11ZM1233.82 483.35H1273.83V497H1216.92V423.5H1272.46V437.15H1233.82V483.35Z" fill="url(#paint14_radial_2103_11)" shape-rendering="crispEdges"/>
<path d="M1334.74 497L1310.69 423.5H1328.33L1349.23 488.6H1340.41L1362.25 423.5H1378L1399 488.6H1390.49L1411.91 423.5H1428.19L1404.14 497H1385.87L1367.29 439.88H1372.12L1353.01 497H1334.74Z" fill="url(#paint15_radial_2103_11)" shape-rendering="crispEdges"/>
<path d="M1472.56 498.26C1466.75 498.26 1461.36 497.315 1456.39 495.425C1451.49 493.535 1447.22 490.875 1443.58 487.445C1440.01 484.015 1437.21 479.99 1435.18 475.37C1433.22 470.75 1432.24 465.71 1432.24 460.25C1432.24 454.79 1433.22 449.75 1435.18 445.13C1437.21 440.51 1440.05 436.485 1443.69 433.055C1447.33 429.625 1451.6 426.965 1456.5 425.075C1461.4 423.185 1466.72 422.24 1472.46 422.24C1478.27 422.24 1483.59 423.185 1488.42 425.075C1493.32 426.965 1497.55 429.625 1501.12 433.055C1504.76 436.485 1507.6 440.51 1509.63 445.13C1511.66 449.68 1512.67 454.72 1512.67 460.25C1512.67 465.71 1511.66 470.785 1509.63 475.475C1507.6 480.095 1504.76 484.12 1501.12 487.55C1497.55 490.91 1493.32 493.535 1488.42 495.425C1483.59 497.315 1478.3 498.26 1472.56 498.26ZM1472.46 483.77C1475.75 483.77 1478.76 483.21 1481.49 482.09C1484.29 480.97 1486.74 479.36 1488.84 477.26C1490.94 475.16 1492.55 472.675 1493.67 469.805C1494.86 466.935 1495.45 463.75 1495.45 460.25C1495.45 456.75 1494.86 453.565 1493.67 450.695C1492.55 447.825 1490.94 445.34 1488.84 443.24C1486.81 441.14 1484.39 439.53 1481.59 438.41C1478.79 437.29 1475.75 436.73 1472.46 436.73C1469.17 436.73 1466.12 437.29 1463.32 438.41C1460.59 439.53 1458.18 441.14 1456.08 443.24C1453.98 445.34 1452.33 447.825 1451.14 450.695C1450.02 453.565 1449.46 456.75 1449.46 460.25C1449.46 463.68 1450.02 466.865 1451.14 469.805C1452.33 472.675 1453.94 475.16 1455.97 477.26C1458.07 479.36 1460.52 480.97 1463.32 482.09C1466.12 483.21 1469.17 483.77 1472.46 483.77Z" fill="url(#paint16_radial_2103_11)" shape-rendering="crispEdges"/>
<path d="M1525.46 497V423.5H1557.27C1563.85 423.5 1569.52 424.585 1574.28 426.755C1579.04 428.855 1582.72 431.9 1585.31 435.89C1587.9 439.88 1589.19 444.64 1589.19 450.17C1589.19 455.63 1587.9 460.355 1585.31 464.345C1582.72 468.265 1579.04 471.275 1574.28 473.375C1569.52 475.475 1563.85 476.525 1557.27 476.525H1534.91L1542.47 469.07V497H1525.46ZM1572.18 497L1553.81 470.33H1571.97L1590.56 497H1572.18ZM1542.47 470.96L1534.91 462.98H1556.33C1561.58 462.98 1565.5 461.86 1568.09 459.62C1570.68 457.31 1571.97 454.16 1571.97 450.17C1571.97 446.11 1570.68 442.96 1568.09 440.72C1565.5 438.48 1561.58 437.36 1556.33 437.36H1534.91L1542.47 429.275V470.96Z" fill="url(#paint17_radial_2103_11)" shape-rendering="crispEdges"/>
<path d="M1602.67 497V423.5H1619.68V483.14H1656.53V497H1602.67Z" fill="url(#paint18_radial_2103_11)" shape-rendering="crispEdges"/>
<path d="M1666.04 497V423.5H1699.43C1707.41 423.5 1714.44 425.04 1720.53 428.12C1726.62 431.13 1731.38 435.365 1734.81 440.825C1738.24 446.285 1739.96 452.76 1739.96 460.25C1739.96 467.67 1738.24 474.145 1734.81 479.675C1731.38 485.135 1726.62 489.405 1720.53 492.485C1714.44 495.495 1707.41 497 1699.43 497H1666.04ZM1683.05 483.035H1698.59C1703.49 483.035 1707.72 482.125 1711.29 480.305C1714.93 478.415 1717.73 475.755 1719.69 472.325C1721.72 468.895 1722.74 464.87 1722.74 460.25C1722.74 455.56 1721.72 451.535 1719.69 448.175C1717.73 444.745 1714.93 442.12 1711.29 440.3C1707.72 438.41 1703.49 437.465 1698.59 437.465H1683.05V483.035Z" fill="url(#paint19_radial_2103_11)" shape-rendering="crispEdges"/>
<path d="M1782.52 497V423.5H1799.53V483.14H1836.39V497H1782.52Z" fill="url(#paint20_radial_2103_11)" shape-rendering="crispEdges"/>
<path d="M1845.89 497V423.5H1862.9V483.14H1899.76V497H1845.89Z" fill="url(#paint21_radial_2103_11)" shape-rendering="crispEdges"/>
<path d="M1909.26 497V423.5H1941.08C1947.66 423.5 1953.33 424.585 1958.09 426.755C1962.85 428.855 1966.52 431.9 1969.11 435.89C1971.7 439.88 1973 444.64 1973 450.17C1973 455.63 1971.7 460.355 1969.11 464.345C1966.52 468.335 1962.85 471.415 1958.09 473.585C1953.33 475.685 1947.66 476.735 1941.08 476.735H1918.71L1926.27 469.07V497H1909.26ZM1926.27 470.96L1918.71 462.875H1940.13C1945.38 462.875 1949.3 461.755 1951.89 459.515C1954.48 457.275 1955.78 454.16 1955.78 450.17C1955.78 446.11 1954.48 442.96 1951.89 440.72C1949.3 438.48 1945.38 437.36 1940.13 437.36H1918.71L1926.27 429.275V470.96Z" fill="url(#paint22_radial_2103_11)" shape-rendering="crispEdges"/>
</g>
<defs>
<filter id="filter0_di_2103_11" x="0" y="0" width="1977" height="758" filterUnits="userSpaceOnUse" color-interpolation-filters="sRGB">
<feFlood flood-opacity="0" result="BackgroundImageFix"/>
<feColorMatrix in="SourceAlpha" type="matrix" values="0 0 0 0 0 0 0 0 0 0 0 0 0 0 0 0 0 0 127 0" result="hardAlpha"/>
<feOffset dy="4"/>
<feGaussianBlur stdDeviation="2"/>
<feComposite in2="hardAlpha" operator="out"/>
<feColorMatrix type="matrix" values="0 0 0 0 0 0 0 0 0 0 0 0 0 0 0 0 0 0 0.25 0"/>
<feBlend mode="normal" in2="BackgroundImageFix" result="effect1_dropShadow_2103_11"/>
<feBlend mode="normal" in="SourceGraphic" in2="effect1_dropShadow_2103_11" result="shape"/>
<feColorMatrix in="SourceAlpha" type="matrix" values="0 0 0 0 0 0 0 0 0 0 0 0 0 0 0 0 0 0 127 0" result="hardAlpha"/>
<feOffset dy="4"/>
<feGaussianBlur stdDeviation="2"/>
<feComposite in2="hardAlpha" operator="arithmetic" k2="-1" k3="1"/>
<feColorMatrix type="matrix" values="0 0 0 0 0 0 0 0 0 0 0 0 0 0 0 0 0 0 0.25 0"/>
<feBlend mode="normal" in2="shape" result="effect2_innerShadow_2103_11"/>
</filter>
<linearGradient id="paint0_linear_2103_11" x1="988.498" y1="0" x2="988.498" y2="750" gradientUnits="userSpaceOnUse">
<stop offset="0.331" stop-color="#70E000"/>
<stop offset="0.981" stop-color="#219EBC"/>
</linearGradient>
<linearGradient id="paint1_linear_2103_11" x1="988.498" y1="0" x2="988.498" y2="750" gradientUnits="userSpaceOnUse">
<stop offset="0.331" stop-color="#70E000"/>
<stop offset="0.981" stop-color="#219EBC"/>
</linearGradient>
<linearGradient id="paint2_linear_2103_11" x1="988.498" y1="0" x2="988.498" y2="750" gradientUnits="userSpaceOnUse">
<stop offset="0.331" stop-color="#70E000"/>
<stop offset="0.981" stop-color="#219EBC"/>
</linearGradient>
<radialGradient id="paint3_radial_2103_11" cx="0" cy="0" r="1" gradientUnits="userSpaceOnUse" gradientTransform="translate(184.66 226.852) rotate(13.6792) scale(1571.04 1524.87)">
<stop offset="0.321" stop-color="#70E000"/>
<stop offset="0.841" stop-color="#219EBC" stop-opacity="0.8"/>
</radialGradient>
<radialGradient id="paint4_radial_2103_11" cx="0" cy="0" r="1" gradientUnits="userSpaceOnUse" gradientTransform="translate(184.66 226.852) rotate(13.6792) scale(1571.04 1524.87)">
<stop offset="0.321" stop-color="#70E000"/>
<stop offset="0.841" stop-color="#219EBC" stop-opacity="0.8"/>
</radialGradient>
<radialGradient id="paint5_radial_2103_11" cx="0" cy="0" r="1" gradientUnits="userSpaceOnUse" gradientTransform="translate(184.66 226.852) rotate(13.6792) scale(1571.04 1524.87)">
<stop offset="0.321" stop-color="#70E000"/>
<stop offset="0.841" stop-color="#219EBC" stop-opacity="0.8"/>
</radialGradient>
<radialGradient id="paint6_radial_2103_11" cx="0" cy="0" r="1" gradientUnits="userSpaceOnUse" gradientTransform="translate(184.66 226.852) rotate(13.6792) scale(1571.04 1524.87)">
<stop offset="0.321" stop-color="#70E000"/>
<stop offset="0.841" stop-color="#219EBC" stop-opacity="0.8"/>
</radialGradient>
<radialGradient id="paint7_radial_2103_11" cx="0" cy="0" r="1" gradientUnits="userSpaceOnUse" gradientTransform="translate(184.66 226.852) rotate(13.6792) scale(1571.04 1524.87)">
<stop offset="0.321" stop-color="#70E000"/>
<stop offset="0.841" stop-color="#219EBC" stop-opacity="0.8"/>
</radialGradient>
<radialGradient id="paint8_radial_2103_11" cx="0" cy="0" r="1" gradientUnits="userSpaceOnUse" gradientTransform="translate(889.59 440.735) rotate(2.80713) scale(960.922 198.551)">
<stop offset="0.181" stop-color="#70E000"/>
<stop offset="0.841" stop-color="#219EBC" stop-opacity="0.8"/>
</radialGradient>
<radialGradient id="paint9_radial_2103_11" cx="0" cy="0" r="1" gradientUnits="userSpaceOnUse" gradientTransform="translate(889.59 440.735) rotate(2.80713) scale(960.922 198.551)">
<stop offset="0.181" stop-color="#70E000"/>
<stop offset="0.841" stop-color="#219EBC" stop-opacity="0.8"/>
</radialGradient>
<radialGradient id="paint10_radial_2103_11" cx="0" cy="0" r="1" gradientUnits="userSpaceOnUse" gradientTransform="translate(889.59 440.735) rotate(2.80713) scale(960.922 198.551)">
<stop offset="0.181" stop-color="#70E000"/>
<stop offset="0.841" stop-color="#219EBC" stop-opacity="0.8"/>
</radialGradient>
<radialGradient id="paint11_radial_2103_11" cx="0" cy="0" r="1" gradientUnits="userSpaceOnUse" gradientTransform="translate(889.59 440.735) rotate(2.80713) scale(960.922 198.551)">
<stop offset="0.181" stop-color="#70E000"/>
<stop offset="0.841" stop-color="#219EBC" stop-opacity="0.8"/>
</radialGradient>
<radialGradient id="paint12_radial_2103_11" cx="0" cy="0" r="1" gradientUnits="userSpaceOnUse" gradientTransform="translate(889.59 440.735) rotate(2.80713) scale(960.922 198.551)">
<stop offset="0.181" stop-color="#70E000"/>
<stop offset="0.841" stop-color="#219EBC" stop-opacity="0.8"/>
</radialGradient>
<radialGradient id="paint13_radial_2103_11" cx="0" cy="0" r="1" gradientUnits="userSpaceOnUse" gradientTransform="translate(889.59 440.735) rotate(2.80713) scale(960.922 198.551)">
<stop offset="0.181" stop-color="#70E000"/>
<stop offset="0.841" stop-color="#219EBC" stop-opacity="0.8"/>
</radialGradient>
<radialGradient id="paint14_radial_2103_11" cx="0" cy="0" r="1" gradientUnits="userSpaceOnUse" gradientTransform="translate(889.59 440.735) rotate(2.80713) scale(960.922 198.551)">
<stop offset="0.181" stop-color="#70E000"/>
<stop offset="0.841" stop-color="#219EBC" stop-opacity="0.8"/>
</radialGradient>
<radialGradient id="paint15_radial_2103_11" cx="0" cy="0" r="1" gradientUnits="userSpaceOnUse" gradientTransform="translate(889.59 440.735) rotate(2.80713) scale(960.922 198.551)">
<stop offset="0.181" stop-color="#70E000"/>
<stop offset="0.841" stop-color="#219EBC" stop-opacity="0.8"/>
</radialGradient>
<radialGradient id="paint16_radial_2103_11" cx="0" cy="0" r="1" gradientUnits="userSpaceOnUse" gradientTransform="translate(889.59 440.735) rotate(2.80713) scale(960.922 198.551)">
<stop offset="0.181" stop-color="#70E000"/>
<stop offset="0.841" stop-color="#219EBC" stop-opacity="0.8"/>
</radialGradient>
<radialGradient id="paint17_radial_2103_11" cx="0" cy="0" r="1" gradientUnits="userSpaceOnUse" gradientTransform="translate(889.59 440.735) rotate(2.80713) scale(960.922 198.551)">
<stop offset="0.181" stop-color="#70E000"/>
<stop offset="0.841" stop-color="#219EBC" stop-opacity="0.8"/>
</radialGradient>
<radialGradient id="paint18_radial_2103_11" cx="0" cy="0" r="1" gradientUnits="userSpaceOnUse" gradientTransform="translate(889.59 440.735) rotate(2.80713) scale(960.922 198.551)">
<stop offset="0.181" stop-color="#70E000"/>
<stop offset="0.841" stop-color="#219EBC" stop-opacity="0.8"/>
</radialGradient>
<radialGradient id="paint19_radial_2103_11" cx="0" cy="0" r="1" gradientUnits="userSpaceOnUse" gradientTransform="translate(889.59 440.735) rotate(2.80713) scale(960.922 198.551)">
<stop offset="0.181" stop-color="#70E000"/>
<stop offset="0.841" stop-color="#219EBC" stop-opacity="0.8"/>
</radialGradient>
<radialGradient id="paint20_radial_2103_11" cx="0" cy="0" r="1" gradientUnits="userSpaceOnUse" gradientTransform="translate(889.59 440.735) rotate(2.80713) scale(960.922 198.551)">
<stop offset="0.181" stop-color="#70E000"/>
<stop offset="0.841" stop-color="#219EBC" stop-opacity="0.8"/>
</radialGradient>
<radialGradient id="paint21_radial_2103_11" cx="0" cy="0" r="1" gradientUnits="userSpaceOnUse" gradientTransform="translate(889.59 440.735) rotate(2.80713) scale(960.922 198.551)">
<stop offset="0.181" stop-color="#70E000"/>
<stop offset="0.841" stop-color="#219EBC" stop-opacity="0.8"/>
</radialGradient>
<radialGradient id="paint22_radial_2103_11" cx="0" cy="0" r="1" gradientUnits="userSpaceOnUse" gradientTransform="translate(889.59 440.735) rotate(2.80713) scale(960.922 198.551)">
<stop offset="0.181" stop-color="#70E000"/>
<stop offset="0.841" stop-color="#219EBC" stop-opacity="0.8"/>
</radialGradient>
</defs>
</svg>
